<svg xmlns="http://www.w3.org/2000/svg" width="24" height="24" viewBox="0 0 24 24"><defs><style>.a{fill:#b3b3b3;}.b{fill:none;}</style></defs><path class="a" d="M19.45,10.9H17.894a5.962,5.962,0,0,0-.921-2.254l1.1-1.1a.551.551,0,0,0,0-.778l0,0-.837-.836a.55.55,0,0,0-.777,0l0,0-1.1,1.1A5.962,5.962,0,0,0,13.1,6.106V4.55a.55.55,0,0,0-.55-.55h-1.1a.55.55,0,0,0-.55.55h0V6.106a5.983,5.983,0,0,0-2.254.92l-1.1-1.1a.55.55,0,0,0-.777,0l0,0-.842.836a.551.551,0,0,0,0,.778l0,0,1.1,1.1A5.994,5.994,0,0,0,6.105,10.9H4.55a.549.549,0,0,0-.55.549v1.1a.55.55,0,0,0,.55.55H6.105a5.985,5.985,0,0,0,.921,2.254l-1.1,1.106a.55.55,0,0,0,0,.777h0l0,0,.836.836a.551.551,0,0,0,.778,0l0,0,1.1-1.1a5.978,5.978,0,0,0,2.253.92V19.45a.55.55,0,0,0,.55.55h1.1a.55.55,0,0,0,.55-.55V17.894a5.972,5.972,0,0,0,2.253-.92l1.1,1.1a.551.551,0,0,0,.778,0h0l0,0,.836-.836a.55.55,0,0,0,0-.778l0,0-1.1-1.1a5.964,5.964,0,0,0,.921-2.253H19.45a.55.55,0,0,0,.55-.55v-1.1a.549.549,0,0,0-.546-.553h0ZM14.207,12A2.207,2.207,0,1,1,12,9.793h0A2.207,2.207,0,0,1,14.207,12Z"/><rect class="b" width="24" height="24" transform="translate(0 0)"/></svg>