<svg xmlns="http://www.w3.org/2000/svg" width="24" height="24" viewBox="0 0 24 24"><defs><style>.a{fill:#b3b3b3;}.b{fill:none;}</style></defs><g transform="translate(-22 -132)"><g transform="translate(25 37.305)"><path class="a" d="M8.26,103.3l-1.035,2.514a.247.247,0,0,1-.207.152l-5.295.465a.247.247,0,0,0-.225.252l.108,4.156a.247.247,0,0,0,.2.235l6.233,1.311a2.22,2.22,0,0,0,.462.048v-9.086C8.5,103,8.39,102.978,8.26,103.3Zm-.725,7.751-2.34-.377v-1.226h2.34Zm-1.023-5.682-6.24.631a.247.247,0,0,1-.248-.35l1.662-3.552a.247.247,0,0,1,.179-.138L8.72,100.7l-2.008,4.523A.247.247,0,0,1,6.512,105.364Zm9.253,1.063-5.295-.465a.247.247,0,0,1-.207-.152L9.228,103.3c-.131-.317-.238-.3-.238.047v9.086a2.22,2.22,0,0,0,.462-.048l6.233-1.311a.247.247,0,0,0,.2-.235l.108-4.156A.247.247,0,0,0,15.765,106.426Zm-2.179,2.22-.292.008-.006,1.84a.2.2,0,0,1-.185.173l-.479.069c-.109.016-.2-.04-.2-.125l0-1.933-.334.009c-.163,0-.266-.126-.183-.234l.8-1.037a.221.221,0,0,1,.333.014l.7,1C13.8,108.521,13.721,108.642,13.586,108.646Zm3.63-2.652-6.24-.631a.247.247,0,0,1-.2-.145l-2.008-4.523,6.856,1.259a.247.247,0,0,1,.179.138l1.662,3.552A.247.247,0,0,1,17.216,105.994Z" transform="translate(0)"/></g><rect class="b" width="24" height="24" transform="translate(22 132)"/></g></svg>