<svg xmlns="http://www.w3.org/2000/svg" width="24" height="24" viewBox="0 0 24 24"><defs><style>.a{fill:rgba(255,19,220,0);}.b{fill:#b3b3b3;}.c{fill:none;}</style></defs><g transform="translate(0.863 0.863)"><rect class="a" width="16" height="16" transform="translate(3.137 3.137)"/><path class="b" d="M11.2,7.6h4.4L11.2,3.2V7.6M5.6,2H12l4.8,4.8v9.6A1.6,1.6,0,0,1,15.2,18H5.6A1.6,1.6,0,0,1,4,16.4V3.6A1.594,1.594,0,0,1,5.6,2m.8,14.4H8V11.6H6.4v4.8m3.2,0h1.6V10H9.6v6.4m3.2,0h1.6V13.2H12.8Z" transform="translate(1.137 1.137)"/></g><rect class="c" width="24" height="24" transform="translate(0 0)"/></svg>