<svg xmlns="http://www.w3.org/2000/svg" width="24" height="24" viewBox="0 0 24 24"><defs><style>.a{fill:none;}.b{fill:#b3b3b3;}</style></defs><g transform="translate(-22 -132)"><rect class="a" width="24" height="24" transform="translate(22 132)"/><path class="b" d="M15.656,4.344,14.528,5.472A6.407,6.407,0,1,1,9.2,3.656V5.272a4.8,4.8,0,1,0,4.192,1.336L12.264,7.736A3.208,3.208,0,1,1,9.2,6.912V8.624A1.584,1.584,0,0,0,8.4,10a1.6,1.6,0,0,0,3.2,0,1.574,1.574,0,0,0-.8-1.376V2H10a8,8,0,1,0,5.656,2.344Z" transform="translate(24 133.806)"/></g></svg>