<svg xmlns="http://www.w3.org/2000/svg" width="16" height="16" viewBox="0 0 16 16"><defs><style>.a,.b{fill:#6e6e6e;}.a{opacity:0;}</style></defs><rect class="a" width="16" height="16"/><path class="b" d="M14.559,2.75H12.353V1.438A.439.439,0,0,0,11.912,1h-.882a.439.439,0,0,0-.441.438V2.75H4.412V1.438A.439.439,0,0,0,3.971,1H3.088a.439.439,0,0,0-.441.438V2.75H.441A.439.439,0,0,0,0,3.188V14.563A.439.439,0,0,0,.441,15H14.559A.439.439,0,0,0,15,14.563V3.188A.439.439,0,0,0,14.559,2.75Zm-.441,11.375H.882V3.625H2.647v.438a.439.439,0,0,0,.441.438h.882a.439.439,0,0,0,.441-.437V3.625h6.176v.438a.439.439,0,0,0,.441.438h.882a.439.439,0,0,0,.441-.437V3.625h1.765Z"/><rect class="b" width="2" height="2" transform="translate(2.625 5.25)"/><rect class="b" width="2" height="2" transform="translate(5.25 5.25)"/><rect class="b" width="2" height="2" transform="translate(7.875 5.25)"/><rect class="b" width="2" height="2" transform="translate(10.5 5.25)"/><rect class="b" width="2" height="2" transform="translate(2.625 7.875)"/><rect class="b" width="2" height="2" transform="translate(5.25 7.875)"/><rect class="b" width="2" height="2" transform="translate(7.875 7.875)"/><rect class="b" width="2" height="2" transform="translate(10.5 7.875)"/><rect class="b" width="2" height="2" transform="translate(2.625 10.5)"/><rect class="b" width="2" height="2" transform="translate(5.25 10.5)"/><rect class="b" width="2" height="2" transform="translate(7.875 10.5)"/><rect class="b" width="2" height="2" transform="translate(10.5 10.5)"/></svg>