<svg xmlns="http://www.w3.org/2000/svg" width="48" height="48" viewBox="0 0 48 48"><defs><style>.a{fill:#4b4b4b;}.b,.d,.e,.f,.g{fill:none;}.b,.c,.d,.f,.g{stroke:#4b4b4b;}.b,.d,.f,.g{stroke-linecap:round;}.b,.f{stroke-linejoin:round;}.c{fill:#fff;}.f,.g{opacity:0;}.h{stroke:none;}</style></defs><g transform="translate(-411 -179)"><path class="a" d="M37.265,104.808l-1.038-4.151a.628.628,0,0,0,.5-.613v-.669a2.638,2.638,0,0,0-2.635-2.635H29.363v-1.38a1.3,1.3,0,0,0-1.3-1.3H3.974a1.3,1.3,0,0,0-1.3,1.3v11.377a.627.627,0,1,0,1.255,0V95.359a.042.042,0,0,1,.042-.042H28.066a.042.042,0,0,1,.042.042v11.377a.627.627,0,0,0,1.255,0v-.711h7.4a2.053,2.053,0,0,1,1.95,1.422H36.766a.627.627,0,0,0-.627.627v1.338a1.968,1.968,0,0,0,1.966,1.966h.711v2.761H37.175a3.972,3.972,0,0,0-7.51,0h-.3v-4.727a.627.627,0,1,0-1.255,0v4.726H15.09a3.972,3.972,0,0,0-7.51,0H3.974a.042.042,0,0,1-.042-.042v-1.38H6.651a.627.627,0,0,0,0-1.255H.627a.627.627,0,0,0,0,1.255h2.05v1.38a1.3,1.3,0,0,0,1.3,1.3H7.363c0,.014,0,.028,0,.042a3.974,3.974,0,0,0,7.947,0c0-.014,0-.028,0-.042h14.14c0,.014,0,.028,0,.042a3.974,3.974,0,0,0,7.947,0c0-.014,0-.028,0-.042h2.051a.627.627,0,0,0,.627-.627v-6.692A3.309,3.309,0,0,0,37.265,104.808Zm-7.9-6.814h4.726a1.382,1.382,0,0,1,1.38,1.38v.042H29.363Zm0,6.776v-4.1h5.575l1.025,4.1ZM11.335,118.155a2.719,2.719,0,1,1,2.719-2.719A2.722,2.722,0,0,1,11.335,118.155Zm22.085,0a2.719,2.719,0,1,1,2.719-2.719A2.722,2.722,0,0,1,33.42,118.155Zm5.4-8.031H38.1a.712.712,0,0,1-.711-.711V108.7h1.422v1.422Z" transform="translate(412.579 97.938)"/><path class="a" d="M129.564,350.6a1.3,1.3,0,1,0,1.3,1.3A1.3,1.3,0,0,0,129.564,350.6Z" transform="translate(294.35 -138.52)"/><path class="a" d="M411.752,350.6a1.3,1.3,0,1,0,1.3,1.3A1.3,1.3,0,0,0,411.752,350.6Z" transform="translate(34.247 -138.52)"/><path class="a" d="M215.224,316.393h-9.369a.627.627,0,0,0,0,1.255h9.369a.627.627,0,0,0,0-1.255Z" transform="translate(223.413 -106.993)"/><path class="a" d="M44.247,282.188H17.729a.627.627,0,1,0,0,1.255H44.247a.627.627,0,1,0,0-1.255Z" transform="translate(396.815 -75.465)"/><path class="b" d="M6.462,108.785V104.33h4.62v2.878" transform="translate(412.579 97.938)"/><path class="b" d="M6.462,108.785V104.33h4.62v2.878" transform="translate(422.579 97.938)"/><path class="b" d="M8.772,103.875V101.21H14.8v8.234" transform="translate(412.579 97.938)"/><path class="b" d="M8.772,103.875V101.21H14.8v8.234" transform="translate(422.579 97.938)"/><g class="c" transform="translate(443 186.288)"><circle class="h" cx="7" cy="7" r="7"/><circle class="e" cx="7" cy="7" r="6.5"/></g><path class="b" d="M0,0,1.586,1.681,3.4,0" transform="translate(451.038 195.027) rotate(-90)"/><path class="d" d="M450.985,5056.542h-4" transform="translate(1.015 -4863.215)"/><rect class="e" width="48" height="48" transform="translate(411 179)"/><path class="f" d="M0,0,1.586,1.681,3.4,0" transform="translate(442.263 195.027) rotate(-90)"/><path class="g" d="M447.382,5056.542h-.4" transform="translate(-4.151 -4863.215)"/></g></svg>