<svg xmlns="http://www.w3.org/2000/svg" width="48" height="48" viewBox="0 0 48 48"><defs><style>.a{fill:#4b4b4b;}.b{fill:#fff;}.b,.c,.d,.f,.g{stroke:#4b4b4b;}.c,.d,.e,.f,.g{fill:none;}.c,.d,.f,.g{stroke-linecap:round;}.c,.f{stroke-linejoin:round;}.f,.g{opacity:0;}.h{stroke:none;}</style></defs><g transform="translate(-411 -179)"><g transform="translate(354.01 185.192)"><g transform="translate(66.11)"><g transform="translate(0)"><path class="a" d="M93.544,10.435a.578.578,0,0,0,.578-.578V5.069A3.583,3.583,0,0,0,90.543,1.49H82.656a2.911,2.911,0,0,0-5.081,0H69.689A3.583,3.583,0,0,0,66.11,5.069V34.184a3.584,3.584,0,0,0,3.579,3.58H90.543a3.584,3.584,0,0,0,3.579-3.58V12.379a.578.578,0,0,0-1.156,0V34.184a2.426,2.426,0,0,1-2.423,2.424H69.689a2.426,2.426,0,0,1-2.423-2.424V5.069a2.426,2.426,0,0,1,2.423-2.423h7.526c-.008.088-.013.177-.013.268v.432H76.059a2.122,2.122,0,0,0-2.12,2.12v.1H71.2a1.51,1.51,0,0,0-1.509,1.508V17.739a.578.578,0,1,0,1.156,0V7.071a.353.353,0,0,1,.353-.352h2.743v.648a.578.578,0,0,0,.578.578h11.2a.578.578,0,0,0,.578-.578V6.719h2.743a.353.353,0,0,1,.353.352V32.991a.353.353,0,0,1-.353.352H71.2a.353.353,0,0,1-.353-.352V20.409a.578.578,0,1,0-1.156,0V32.991A1.51,1.51,0,0,0,71.2,34.5H89.035a1.51,1.51,0,0,0,1.509-1.508V7.071a1.51,1.51,0,0,0-1.509-1.508H86.292v-.1a2.122,2.122,0,0,0-2.12-2.12H83.029V2.913c0-.09,0-.179-.013-.268h7.526a2.426,2.426,0,0,1,2.423,2.423V9.856A.578.578,0,0,0,93.544,10.435ZM78.359,2.913a1.757,1.757,0,0,1,3.515,0v.432H78.359V2.913ZM84.173,4.5a.965.965,0,0,1,.964.964V6.789H75.1V5.466a.965.965,0,0,1,.964-.964h8.113Z" transform="translate(-66.11)"/></g></g><g transform="translate(72.133 11.416)"><g transform="translate(0)"><path class="a" d="M154.3,159.992a2.595,2.595,0,1,0,2.595,2.595A2.6,2.6,0,0,0,154.3,159.992Zm0,3.722a1.128,1.128,0,1,1,1.128-1.128A1.129,1.129,0,0,1,154.3,163.714Z" transform="translate(-151.705 -159.992)"/></g></g><g transform="translate(72.133 17.399)"><g transform="translate(0)"><path class="a" d="M154.3,243.85a2.595,2.595,0,1,0,2.595,2.595A2.6,2.6,0,0,0,154.3,243.85Zm0,3.722a1.128,1.128,0,1,1,1.128-1.128A1.129,1.129,0,0,1,154.3,247.572Z" transform="translate(-151.705 -243.85)"/></g></g><g transform="translate(72.133 23.382)"><g transform="translate(0)"><path class="a" d="M154.3,327.71a2.594,2.594,0,1,0,2.595,2.594A2.6,2.6,0,0,0,154.3,327.71Zm0,3.722a1.128,1.128,0,1,1,1.128-1.128A1.129,1.129,0,0,1,154.3,331.432Z" transform="translate(-151.705 -327.71)"/></g></g><g transform="translate(76.694 13.155)"><g transform="translate(0)"><path class="a" d="M239.834,179.88h-9.61a.733.733,0,1,0,0,1.467h9.61a.733.733,0,0,0,0-1.467Z" transform="translate(-229.491 -179.88)"/></g></g><g transform="translate(76.694 19.288)"><g transform="translate(0)"><path class="a" d="M239.834,263.74h-9.61a.733.733,0,0,0,0,1.467h9.61a.733.733,0,0,0,0-1.467Z" transform="translate(-229.491 -263.74)"/></g></g><g transform="translate(76.694 25.421)"><g transform="translate(0)"><path class="a" d="M239.834,347.6h-9.61a.733.733,0,1,0,0,1.467h9.61a.733.733,0,1,0,0-1.467Z" transform="translate(-229.491 -347.599)"/></g></g></g><g class="b" transform="translate(443 186.288)"><circle class="h" cx="7" cy="7" r="7"/><circle class="e" cx="7" cy="7" r="6.5"/></g><path class="c" d="M0,0,1.586,1.681,3.4,0" transform="translate(451.718 192.308) rotate(180)"/><path class="d" d="M450.985,5056.542h-4" transform="translate(-4606.524 643.013) rotate(-90)"/><rect class="e" width="48" height="48" transform="translate(411 179)"/><path class="f" d="M0,0,1.586,1.681,3.4,0" transform="translate(451.718 199.309) rotate(180)"/><path class="g" d="M447.521,5056.542h-.537" transform="translate(-4606.524 646.293) rotate(-90)"/><path class="f" d="M0,0,1.586,1.681,3.4,0" transform="translate(442.263 195.027) rotate(-90)"/><path class="g" d="M447.382,5056.542h-.4" transform="translate(-4.151 -4863.215)"/></g></svg>